<?xml version="1.0" standalone="no"?><!DOCTYPE svg PUBLIC "-//W3C//DTD SVG 1.1//EN" "http://www.w3.org/Graphics/SVG/1.1/DTD/svg11.dtd"><svg t="1705389349335" class="icon" viewBox="0 0 1024 1024" version="1.1" xmlns="http://www.w3.org/2000/svg" p-id="8968" xmlns:xlink="http://www.w3.org/1999/xlink" width="200" height="200"><path d="M982.877091 554.344727 512 47.255273 41.122909 554.344727c-8.738909 9.425455-8.203636 24.145455 1.221818 32.896 9.425455 8.738909 24.145455 8.203636 32.896-1.210182L512 115.653818l436.759273 470.365091C953.355636 590.952727 959.581091 593.454545 965.818182 593.454545c5.666909 0 11.357091-2.059636 15.837091-6.213818C991.069091 578.490182 991.616 563.758545 982.877091 554.344727z" p-id="8969"></path><path d="M861.090909 558.545455c-12.846545 0-23.272727 10.426182-23.272727 23.272727l0 349.090909L465.454545 930.909091 465.454545 756.363636l116.363636 0c12.846545 0 23.272727-10.426182 23.272727-23.272727s-10.426182-23.272727-23.272727-23.272727L442.181818 709.818182c-12.846545 0-23.272727 10.426182-23.272727 23.272727l0 197.818182L174.545455 930.909091 174.545455 581.818182c0-12.846545-10.426182-23.272727-23.272727-23.272727s-23.272727 10.426182-23.272727 23.272727l0 372.363636c0 12.846545 10.426182 23.272727 23.272727 23.272727l709.818182 0c12.846545 0 23.272727-10.426182 23.272727-23.272727L884.363636 581.818182C884.363636 568.971636 873.937455 558.545455 861.090909 558.545455z" p-id="8970"></path></svg>